<svg width="734" height="681" viewBox="0 0 734 681" fill="none" xmlns="http://www.w3.org/2000/svg">
<path d="M48 637.033C159.267 373.213 268.546 279.085 597.55 264.986" stroke="#007CBA" stroke-opacity="0.47" stroke-width="100"/>
<path d="M663.058 262.655C662.88 262.382 662.129 261.25 661.597 261.42C661.349 261.499 660.443 262.388 660.244 262.648C659.828 263.189 659.397 263.601 659.156 264.28C659.055 264.561 658.959 264.848 658.886 265.126C658.751 265.646 658.891 265.729 658.963 266.136C659.187 267.397 661.362 266.669 662.227 265.423C662.524 264.996 662.82 264.57 663.116 264.143C663.352 263.804 663.307 263.832 663.237 263.576C663.184 263.379 663.048 263.243 663.037 263.013C663.022 262.706 663.17 262.58 662.946 262.425" stroke="#007CBA" stroke-opacity="0.47" stroke-width="100" stroke-linecap="round" stroke-linejoin="round"/>
<path d="M89 471.902C203.752 190.185 321.628 87.7334 684.958 63.6804" stroke="#007CBA" stroke-opacity="0.47" stroke-width="100"/>
</svg>
